<?xml version="1.0" encoding="UTF-8"?>
<svg xmlns="http://www.w3.org/2000/svg" xmlns:xlink="http://www.w3.org/1999/xlink" width="375pt" height="374.999991pt" viewBox="0 0 375 374.999991" version="1.2">
<defs>
<clipPath id="clip1">
  <path d="M 375 187.5 C 375 190.570312 374.925781 193.636719 374.773438 196.699219 C 374.625 199.765625 374.398438 202.824219 374.097656 205.878906 C 373.796875 208.933594 373.421875 211.976562 372.96875 215.011719 C 372.519531 218.046875 371.996094 221.070312 371.398438 224.078125 C 370.796875 227.089844 370.125 230.082031 369.378906 233.058594 C 368.636719 236.035156 367.816406 238.992188 366.925781 241.929688 C 366.035156 244.863281 365.074219 247.777344 364.039062 250.667969 C 363.003906 253.554688 361.902344 256.417969 360.726562 259.253906 C 359.554688 262.089844 358.308594 264.890625 356.996094 267.667969 C 355.6875 270.441406 354.308594 273.179688 352.859375 275.886719 C 351.414062 278.59375 349.902344 281.261719 348.324219 283.894531 C 346.746094 286.527344 345.105469 289.117188 343.402344 291.667969 C 341.695312 294.222656 339.929688 296.730469 338.101562 299.195312 C 336.273438 301.660156 334.386719 304.078125 332.4375 306.449219 C 330.492188 308.820312 328.488281 311.144531 326.429688 313.417969 C 324.367188 315.691406 322.253906 317.914062 320.082031 320.082031 C 317.914062 322.253906 315.691406 324.367188 313.417969 326.429688 C 311.144531 328.488281 308.820312 330.492188 306.449219 332.4375 C 304.078125 334.386719 301.660156 336.273438 299.195312 338.101562 C 296.730469 339.929688 294.222656 341.695312 291.667969 343.402344 C 289.117188 345.105469 286.527344 346.746094 283.894531 348.324219 C 281.261719 349.902344 278.59375 351.414062 275.886719 352.859375 C 273.179688 354.308594 270.441406 355.6875 267.667969 356.996094 C 264.890625 358.308594 262.089844 359.554688 259.253906 360.726562 C 256.417969 361.902344 253.554688 363.003906 250.667969 364.039062 C 247.777344 365.074219 244.863281 366.035156 241.929688 366.925781 C 238.992188 367.816406 236.035156 368.636719 233.058594 369.378906 C 230.082031 370.125 227.089844 370.796875 224.078125 371.398438 C 221.070312 371.996094 218.046875 372.519531 215.011719 372.96875 C 211.976562 373.421875 208.933594 373.796875 205.878906 374.097656 C 202.824219 374.398438 199.765625 374.625 196.699219 374.773438 C 193.636719 374.925781 190.570312 375 187.5 375 C 184.429688 375 181.363281 374.925781 178.300781 374.773438 C 175.234375 374.625 172.175781 374.398438 169.121094 374.097656 C 166.066406 373.796875 163.023438 373.421875 159.988281 372.96875 C 156.953125 372.519531 153.929688 371.996094 150.921875 371.398438 C 147.910156 370.796875 144.917969 370.125 141.941406 369.378906 C 138.964844 368.636719 136.007812 367.816406 133.070312 366.925781 C 130.136719 366.035156 127.222656 365.074219 124.332031 364.039062 C 121.445312 363.003906 118.582031 361.902344 115.746094 360.726562 C 112.910156 359.554688 110.105469 358.308594 107.332031 356.996094 C 104.558594 355.6875 101.820312 354.308594 99.113281 352.859375 C 96.40625 351.414062 93.738281 349.902344 91.105469 348.324219 C 88.472656 346.746094 85.882812 345.105469 83.332031 343.402344 C 80.777344 341.695312 78.269531 339.929688 75.804688 338.101562 C 73.339844 336.273438 70.921875 334.386719 68.550781 332.4375 C 66.179688 330.492188 63.855469 328.488281 61.582031 326.429688 C 59.308594 324.367188 57.085938 322.253906 54.917969 320.082031 C 52.746094 317.914062 50.632812 315.691406 48.570312 313.417969 C 46.511719 311.144531 44.507812 308.820312 42.558594 306.449219 C 40.613281 304.078125 38.726562 301.660156 36.898438 299.195312 C 35.070312 296.730469 33.304688 294.222656 31.597656 291.667969 C 29.894531 289.117188 28.253906 286.527344 26.675781 283.894531 C 25.097656 281.261719 23.585938 278.59375 22.140625 275.886719 C 20.691406 273.179688 19.3125 270.441406 18.003906 267.667969 C 16.691406 264.890625 15.445312 262.089844 14.273438 259.253906 C 13.097656 256.417969 11.996094 253.554688 10.960938 250.667969 C 9.925781 247.777344 8.964844 244.863281 8.074219 241.929688 C 7.183594 238.992188 6.363281 236.035156 5.621094 233.058594 C 4.875 230.082031 4.203125 227.089844 3.601562 224.078125 C 3.003906 221.070312 2.480469 218.046875 2.03125 215.011719 C 1.578125 211.976562 1.203125 208.933594 0.902344 205.878906 C 0.601562 202.824219 0.375 199.765625 0.226562 196.699219 C 0.0742188 193.636719 0 190.570312 0 187.5 C 0 184.429688 0.0742188 181.363281 0.226562 178.300781 C 0.375 175.234375 0.601562 172.175781 0.902344 169.121094 C 1.203125 166.066406 1.578125 163.023438 2.03125 159.988281 C 2.480469 156.953125 3.003906 153.929688 3.601562 150.921875 C 4.203125 147.910156 4.875 144.917969 5.621094 141.941406 C 6.363281 138.964844 7.183594 136.007812 8.074219 133.070312 C 8.964844 130.136719 9.925781 127.222656 10.960938 124.332031 C 11.996094 121.445312 13.097656 118.582031 14.273438 115.746094 C 15.445312 112.910156 16.691406 110.105469 18.003906 107.332031 C 19.3125 104.558594 20.691406 101.820312 22.140625 99.113281 C 23.585938 96.40625 25.097656 93.738281 26.675781 91.105469 C 28.253906 88.472656 29.894531 85.882812 31.597656 83.332031 C 33.304688 80.777344 35.070312 78.269531 36.898438 75.804688 C 38.726562 73.339844 40.613281 70.921875 42.558594 68.550781 C 44.507812 66.179688 46.511719 63.855469 48.570312 61.582031 C 50.632812 59.308594 52.746094 57.085938 54.917969 54.917969 C 57.085938 52.746094 59.308594 50.632812 61.582031 48.570312 C 63.855469 46.511719 66.179688 44.507812 68.550781 42.558594 C 70.921875 40.613281 73.339844 38.726562 75.804688 36.898438 C 78.269531 35.070312 80.777344 33.304688 83.332031 31.597656 C 85.882812 29.894531 88.472656 28.253906 91.105469 26.675781 C 93.738281 25.097656 96.40625 23.585938 99.113281 22.140625 C 101.820312 20.691406 104.558594 19.3125 107.332031 18.003906 C 110.105469 16.691406 112.910156 15.445312 115.746094 14.273438 C 118.582031 13.097656 121.445312 11.996094 124.332031 10.960938 C 127.222656 9.925781 130.136719 8.964844 133.070312 8.074219 C 136.007812 7.183594 138.964844 6.363281 141.941406 5.617188 C 144.917969 4.875 147.910156 4.203125 150.921875 3.601562 C 153.929688 3.003906 156.953125 2.480469 159.988281 2.03125 C 163.023438 1.578125 166.066406 1.203125 169.121094 0.902344 C 172.175781 0.601562 175.234375 0.375 178.300781 0.226562 C 181.363281 0.0742188 184.429688 0 187.5 0 C 190.570312 0 193.636719 0.0742188 196.699219 0.226562 C 199.765625 0.375 202.824219 0.601562 205.878906 0.902344 C 208.933594 1.203125 211.976562 1.578125 215.011719 2.03125 C 218.046875 2.480469 221.070312 3.003906 224.078125 3.601562 C 227.089844 4.203125 230.082031 4.875 233.058594 5.617188 C 236.035156 6.363281 238.992188 7.183594 241.929688 8.074219 C 244.863281 8.964844 247.777344 9.925781 250.667969 10.960938 C 253.554688 11.996094 256.417969 13.097656 259.253906 14.273438 C 262.089844 15.445312 264.890625 16.691406 267.667969 18.003906 C 270.441406 19.3125 273.179688 20.691406 275.886719 22.140625 C 278.59375 23.585938 281.261719 25.097656 283.894531 26.675781 C 286.527344 28.253906 289.117188 29.894531 291.667969 31.597656 C 294.222656 33.304688 296.730469 35.070312 299.195312 36.898438 C 301.660156 38.726562 304.078125 40.613281 306.449219 42.558594 C 308.820312 44.507812 311.144531 46.511719 313.417969 48.570312 C 315.691406 50.632812 317.914062 52.746094 320.082031 54.917969 C 322.253906 57.085938 324.367188 59.308594 326.429688 61.582031 C 328.488281 63.855469 330.492188 66.179688 332.4375 68.550781 C 334.386719 70.921875 336.273438 73.339844 338.101562 75.804688 C 339.929688 78.269531 341.695312 80.777344 343.402344 83.332031 C 345.105469 85.882812 346.746094 88.472656 348.324219 91.105469 C 349.902344 93.738281 351.414062 96.40625 352.859375 99.113281 C 354.308594 101.820312 355.6875 104.558594 356.996094 107.332031 C 358.308594 110.105469 359.554688 112.910156 360.726562 115.746094 C 361.902344 118.582031 363.003906 121.445312 364.039062 124.332031 C 365.074219 127.222656 366.035156 130.136719 366.925781 133.070312 C 367.816406 136.007812 368.636719 138.964844 369.378906 141.941406 C 370.125 144.917969 370.796875 147.910156 371.398438 150.921875 C 371.996094 153.929688 372.519531 156.953125 372.96875 159.988281 C 373.421875 163.023438 373.796875 166.066406 374.097656 169.121094 C 374.398438 172.175781 374.625 175.234375 374.773438 178.300781 C 374.925781 181.363281 375 184.429688 375 187.5 Z M 375 187.5 "/>
</clipPath>
<linearGradient id="linear0" gradientUnits="userSpaceOnUse" x1="0" y1="0" x2="1.004902" y2="0.995049" gradientTransform="matrix(374.999991,0,0,374.999991,0.0000045,0)">
<stop offset="0" style="stop-color:rgb(0%,76.899719%,79.998779%);stop-opacity:1;"/>
<stop offset="0.00390625" style="stop-color:rgb(0.0305176%,76.609802%,79.751587%);stop-opacity:1;"/>
<stop offset="0.0078125" style="stop-color:rgb(0.062561%,76.321411%,79.50592%);stop-opacity:1;"/>
<stop offset="0.0117188" style="stop-color:rgb(0.0930786%,76.031494%,79.258728%);stop-opacity:1;"/>
<stop offset="0.015625" style="stop-color:rgb(0.125122%,75.743103%,79.013062%);stop-opacity:1;"/>
<stop offset="0.0195312" style="stop-color:rgb(0.157166%,75.453186%,78.765869%);stop-opacity:1;"/>
<stop offset="0.0234375" style="stop-color:rgb(0.189209%,75.164795%,78.518677%);stop-opacity:1;"/>
<stop offset="0.0273438" style="stop-color:rgb(0.219727%,74.874878%,78.271484%);stop-opacity:1;"/>
<stop offset="0.03125" style="stop-color:rgb(0.25177%,74.586487%,78.025818%);stop-opacity:1;"/>
<stop offset="0.0351562" style="stop-color:rgb(0.283813%,74.29657%,77.778625%);stop-opacity:1;"/>
<stop offset="0.0390625" style="stop-color:rgb(0.315857%,74.008179%,77.532959%);stop-opacity:1;"/>
<stop offset="0.0429688" style="stop-color:rgb(0.346375%,73.718262%,77.285767%);stop-opacity:1;"/>
<stop offset="0.046875" style="stop-color:rgb(0.378418%,73.429871%,77.038574%);stop-opacity:1;"/>
<stop offset="0.0507812" style="stop-color:rgb(0.410461%,73.139954%,76.791382%);stop-opacity:1;"/>
<stop offset="0.0546875" style="stop-color:rgb(0.442505%,72.851562%,76.545715%);stop-opacity:1;"/>
<stop offset="0.0585938" style="stop-color:rgb(0.473022%,72.561646%,76.298523%);stop-opacity:1;"/>
<stop offset="0.0625" style="stop-color:rgb(0.505066%,72.273254%,76.052856%);stop-opacity:1;"/>
<stop offset="0.0664062" style="stop-color:rgb(0.537109%,71.983337%,75.805664%);stop-opacity:1;"/>
<stop offset="0.0703125" style="stop-color:rgb(0.569153%,71.694946%,75.559998%);stop-opacity:1;"/>
<stop offset="0.0742188" style="stop-color:rgb(0.59967%,71.405029%,75.312805%);stop-opacity:1;"/>
<stop offset="0.078125" style="stop-color:rgb(0.631714%,71.116638%,75.065613%);stop-opacity:1;"/>
<stop offset="0.0820313" style="stop-color:rgb(0.663757%,70.826721%,74.81842%);stop-opacity:1;"/>
<stop offset="0.0859375" style="stop-color:rgb(0.695801%,70.53833%,74.572754%);stop-opacity:1;"/>
<stop offset="0.0898438" style="stop-color:rgb(0.726318%,70.248413%,74.325562%);stop-opacity:1;"/>
<stop offset="0.09375" style="stop-color:rgb(0.758362%,69.960022%,74.079895%);stop-opacity:1;"/>
<stop offset="0.0976562" style="stop-color:rgb(0.790405%,69.670105%,73.832703%);stop-opacity:1;"/>
<stop offset="0.101562" style="stop-color:rgb(0.822449%,69.381714%,73.58551%);stop-opacity:1;"/>
<stop offset="0.105469" style="stop-color:rgb(0.852966%,69.091797%,73.338318%);stop-opacity:1;"/>
<stop offset="0.109375" style="stop-color:rgb(0.88501%,68.803406%,73.092651%);stop-opacity:1;"/>
<stop offset="0.113281" style="stop-color:rgb(0.917053%,68.513489%,72.845459%);stop-opacity:1;"/>
<stop offset="0.117188" style="stop-color:rgb(0.949097%,68.225098%,72.599792%);stop-opacity:1;"/>
<stop offset="0.121094" style="stop-color:rgb(0.979614%,67.935181%,72.3526%);stop-opacity:1;"/>
<stop offset="0.125" style="stop-color:rgb(1.011658%,67.64679%,72.105408%);stop-opacity:1;"/>
<stop offset="0.128906" style="stop-color:rgb(1.043701%,67.356873%,71.858215%);stop-opacity:1;"/>
<stop offset="0.132812" style="stop-color:rgb(1.075745%,67.068481%,71.612549%);stop-opacity:1;"/>
<stop offset="0.136719" style="stop-color:rgb(1.106262%,66.778564%,71.365356%);stop-opacity:1;"/>
<stop offset="0.140625" style="stop-color:rgb(1.138306%,66.490173%,71.11969%);stop-opacity:1;"/>
<stop offset="0.144531" style="stop-color:rgb(1.170349%,66.200256%,70.872498%);stop-opacity:1;"/>
<stop offset="0.148438" style="stop-color:rgb(1.202393%,65.911865%,70.625305%);stop-opacity:1;"/>
<stop offset="0.152344" style="stop-color:rgb(1.23291%,65.621948%,70.378113%);stop-opacity:1;"/>
<stop offset="0.15625" style="stop-color:rgb(1.264954%,65.333557%,70.132446%);stop-opacity:1;"/>
<stop offset="0.160156" style="stop-color:rgb(1.296997%,65.04364%,69.885254%);stop-opacity:1;"/>
<stop offset="0.164063" style="stop-color:rgb(1.329041%,64.755249%,69.639587%);stop-opacity:1;"/>
<stop offset="0.167969" style="stop-color:rgb(1.359558%,64.465332%,69.392395%);stop-opacity:1;"/>
<stop offset="0.171875" style="stop-color:rgb(1.391602%,64.176941%,69.146729%);stop-opacity:1;"/>
<stop offset="0.175781" style="stop-color:rgb(1.423645%,63.88855%,68.899536%);stop-opacity:1;"/>
<stop offset="0.179688" style="stop-color:rgb(1.455688%,63.600159%,68.652344%);stop-opacity:1;"/>
<stop offset="0.183594" style="stop-color:rgb(1.486206%,63.310242%,68.405151%);stop-opacity:1;"/>
<stop offset="0.1875" style="stop-color:rgb(1.51825%,63.021851%,68.159485%);stop-opacity:1;"/>
<stop offset="0.191406" style="stop-color:rgb(1.550293%,62.731934%,67.912292%);stop-opacity:1;"/>
<stop offset="0.195312" style="stop-color:rgb(1.582336%,62.443542%,67.666626%);stop-opacity:1;"/>
<stop offset="0.199219" style="stop-color:rgb(1.612854%,62.153625%,67.419434%);stop-opacity:1;"/>
<stop offset="0.203125" style="stop-color:rgb(1.644897%,61.865234%,67.172241%);stop-opacity:1;"/>
<stop offset="0.207031" style="stop-color:rgb(1.676941%,61.575317%,66.925049%);stop-opacity:1;"/>
<stop offset="0.210938" style="stop-color:rgb(1.708984%,61.286926%,66.679382%);stop-opacity:1;"/>
<stop offset="0.214844" style="stop-color:rgb(1.739502%,60.997009%,66.43219%);stop-opacity:1;"/>
<stop offset="0.21875" style="stop-color:rgb(1.771545%,60.708618%,66.186523%);stop-opacity:1;"/>
<stop offset="0.222656" style="stop-color:rgb(1.803589%,60.418701%,65.939331%);stop-opacity:1;"/>
<stop offset="0.226562" style="stop-color:rgb(1.835632%,60.13031%,65.692139%);stop-opacity:1;"/>
<stop offset="0.230469" style="stop-color:rgb(1.86615%,59.840393%,65.444946%);stop-opacity:1;"/>
<stop offset="0.234375" style="stop-color:rgb(1.898193%,59.552002%,65.19928%);stop-opacity:1;"/>
<stop offset="0.238281" style="stop-color:rgb(1.930237%,59.262085%,64.952087%);stop-opacity:1;"/>
<stop offset="0.242188" style="stop-color:rgb(1.96228%,58.973694%,64.706421%);stop-opacity:1;"/>
<stop offset="0.246094" style="stop-color:rgb(1.992798%,58.683777%,64.459229%);stop-opacity:1;"/>
<stop offset="0.25" style="stop-color:rgb(2.024841%,58.395386%,64.212036%);stop-opacity:1;"/>
<stop offset="0.253906" style="stop-color:rgb(2.056885%,58.105469%,63.964844%);stop-opacity:1;"/>
<stop offset="0.257812" style="stop-color:rgb(2.088928%,57.817078%,63.719177%);stop-opacity:1;"/>
<stop offset="0.261719" style="stop-color:rgb(2.119446%,57.527161%,63.471985%);stop-opacity:1;"/>
<stop offset="0.265625" style="stop-color:rgb(2.151489%,57.23877%,63.226318%);stop-opacity:1;"/>
<stop offset="0.269531" style="stop-color:rgb(2.183533%,56.948853%,62.979126%);stop-opacity:1;"/>
<stop offset="0.273438" style="stop-color:rgb(2.215576%,56.660461%,62.733459%);stop-opacity:1;"/>
<stop offset="0.277344" style="stop-color:rgb(2.246094%,56.370544%,62.486267%);stop-opacity:1;"/>
<stop offset="0.28125" style="stop-color:rgb(2.278137%,56.082153%,62.239075%);stop-opacity:1;"/>
<stop offset="0.285156" style="stop-color:rgb(2.310181%,55.792236%,61.991882%);stop-opacity:1;"/>
<stop offset="0.289062" style="stop-color:rgb(2.342224%,55.503845%,61.746216%);stop-opacity:1;"/>
<stop offset="0.292969" style="stop-color:rgb(2.372742%,55.213928%,61.499023%);stop-opacity:1;"/>
<stop offset="0.296875" style="stop-color:rgb(2.404785%,54.925537%,61.253357%);stop-opacity:1;"/>
<stop offset="0.300781" style="stop-color:rgb(2.436829%,54.63562%,61.006165%);stop-opacity:1;"/>
<stop offset="0.304688" style="stop-color:rgb(2.468872%,54.347229%,60.758972%);stop-opacity:1;"/>
<stop offset="0.308594" style="stop-color:rgb(2.49939%,54.057312%,60.51178%);stop-opacity:1;"/>
<stop offset="0.3125" style="stop-color:rgb(2.531433%,53.768921%,60.266113%);stop-opacity:1;"/>
<stop offset="0.316406" style="stop-color:rgb(2.563477%,53.479004%,60.018921%);stop-opacity:1;"/>
<stop offset="0.320312" style="stop-color:rgb(2.59552%,53.190613%,59.773254%);stop-opacity:1;"/>
<stop offset="0.324219" style="stop-color:rgb(2.626038%,52.900696%,59.526062%);stop-opacity:1;"/>
<stop offset="0.328125" style="stop-color:rgb(2.658081%,52.612305%,59.27887%);stop-opacity:1;"/>
<stop offset="0.332031" style="stop-color:rgb(2.690125%,52.322388%,59.031677%);stop-opacity:1;"/>
<stop offset="0.335938" style="stop-color:rgb(2.722168%,52.033997%,58.786011%);stop-opacity:1;"/>
<stop offset="0.339844" style="stop-color:rgb(2.752686%,51.74408%,58.538818%);stop-opacity:1;"/>
<stop offset="0.34375" style="stop-color:rgb(2.784729%,51.455688%,58.293152%);stop-opacity:1;"/>
<stop offset="0.347656" style="stop-color:rgb(2.815247%,51.165771%,58.045959%);stop-opacity:1;"/>
<stop offset="0.351563" style="stop-color:rgb(2.84729%,50.87738%,57.798767%);stop-opacity:1;"/>
<stop offset="0.355469" style="stop-color:rgb(2.879333%,50.587463%,57.551575%);stop-opacity:1;"/>
<stop offset="0.359375" style="stop-color:rgb(2.911377%,50.299072%,57.305908%);stop-opacity:1;"/>
<stop offset="0.363281" style="stop-color:rgb(2.941895%,50.009155%,57.058716%);stop-opacity:1;"/>
<stop offset="0.367188" style="stop-color:rgb(2.973938%,49.720764%,56.813049%);stop-opacity:1;"/>
<stop offset="0.371094" style="stop-color:rgb(3.005981%,49.430847%,56.565857%);stop-opacity:1;"/>
<stop offset="0.375" style="stop-color:rgb(3.038025%,49.142456%,56.32019%);stop-opacity:1;"/>
<stop offset="0.378906" style="stop-color:rgb(3.068542%,48.852539%,56.072998%);stop-opacity:1;"/>
<stop offset="0.382812" style="stop-color:rgb(3.100586%,48.564148%,55.825806%);stop-opacity:1;"/>
<stop offset="0.386719" style="stop-color:rgb(3.132629%,48.275757%,55.578613%);stop-opacity:1;"/>
<stop offset="0.390625" style="stop-color:rgb(3.164673%,47.987366%,55.332947%);stop-opacity:1;"/>
<stop offset="0.394531" style="stop-color:rgb(3.19519%,47.697449%,55.085754%);stop-opacity:1;"/>
<stop offset="0.398438" style="stop-color:rgb(3.227234%,47.409058%,54.840088%);stop-opacity:1;"/>
<stop offset="0.402344" style="stop-color:rgb(3.259277%,47.119141%,54.592896%);stop-opacity:1;"/>
<stop offset="0.40625" style="stop-color:rgb(3.291321%,46.83075%,54.345703%);stop-opacity:1;"/>
<stop offset="0.410156" style="stop-color:rgb(3.321838%,46.540833%,54.098511%);stop-opacity:1;"/>
<stop offset="0.414062" style="stop-color:rgb(3.353882%,46.252441%,53.852844%);stop-opacity:1;"/>
<stop offset="0.417969" style="stop-color:rgb(3.385925%,45.962524%,53.605652%);stop-opacity:1;"/>
<stop offset="0.421875" style="stop-color:rgb(3.417969%,45.674133%,53.359985%);stop-opacity:1;"/>
<stop offset="0.425781" style="stop-color:rgb(3.448486%,45.384216%,53.112793%);stop-opacity:1;"/>
<stop offset="0.429688" style="stop-color:rgb(3.48053%,45.095825%,52.865601%);stop-opacity:1;"/>
<stop offset="0.433594" style="stop-color:rgb(3.512573%,44.805908%,52.618408%);stop-opacity:1;"/>
<stop offset="0.4375" style="stop-color:rgb(3.544617%,44.517517%,52.372742%);stop-opacity:1;"/>
<stop offset="0.441406" style="stop-color:rgb(3.575134%,44.2276%,52.125549%);stop-opacity:1;"/>
<stop offset="0.445312" style="stop-color:rgb(3.607178%,43.939209%,51.879883%);stop-opacity:1;"/>
<stop offset="0.449219" style="stop-color:rgb(3.639221%,43.649292%,51.63269%);stop-opacity:1;"/>
<stop offset="0.453125" style="stop-color:rgb(3.671265%,43.360901%,51.385498%);stop-opacity:1;"/>
<stop offset="0.457031" style="stop-color:rgb(3.701782%,43.070984%,51.138306%);stop-opacity:1;"/>
<stop offset="0.460938" style="stop-color:rgb(3.733826%,42.782593%,50.892639%);stop-opacity:1;"/>
<stop offset="0.464844" style="stop-color:rgb(3.765869%,42.492676%,50.645447%);stop-opacity:1;"/>
<stop offset="0.46875" style="stop-color:rgb(3.797913%,42.204285%,50.39978%);stop-opacity:1;"/>
<stop offset="0.472656" style="stop-color:rgb(3.82843%,41.914368%,50.152588%);stop-opacity:1;"/>
<stop offset="0.476563" style="stop-color:rgb(3.860474%,41.625977%,49.906921%);stop-opacity:1;"/>
<stop offset="0.480469" style="stop-color:rgb(3.892517%,41.33606%,49.659729%);stop-opacity:1;"/>
<stop offset="0.484375" style="stop-color:rgb(3.924561%,41.047668%,49.412537%);stop-opacity:1;"/>
<stop offset="0.488281" style="stop-color:rgb(3.955078%,40.757751%,49.165344%);stop-opacity:1;"/>
<stop offset="0.492188" style="stop-color:rgb(3.987122%,40.46936%,48.919678%);stop-opacity:1;"/>
<stop offset="0.496094" style="stop-color:rgb(4.019165%,40.179443%,48.672485%);stop-opacity:1;"/>
<stop offset="0.5" style="stop-color:rgb(4.051208%,39.891052%,48.426819%);stop-opacity:1;"/>
<stop offset="0.503906" style="stop-color:rgb(4.081726%,39.601135%,48.179626%);stop-opacity:1;"/>
<stop offset="0.507812" style="stop-color:rgb(4.11377%,39.312744%,47.932434%);stop-opacity:1;"/>
<stop offset="0.511719" style="stop-color:rgb(4.145813%,39.022827%,47.685242%);stop-opacity:1;"/>
<stop offset="0.515625" style="stop-color:rgb(4.177856%,38.734436%,47.439575%);stop-opacity:1;"/>
<stop offset="0.519531" style="stop-color:rgb(4.208374%,38.444519%,47.192383%);stop-opacity:1;"/>
<stop offset="0.523437" style="stop-color:rgb(4.240417%,38.156128%,46.946716%);stop-opacity:1;"/>
<stop offset="0.527344" style="stop-color:rgb(4.272461%,37.866211%,46.699524%);stop-opacity:1;"/>
<stop offset="0.53125" style="stop-color:rgb(4.304504%,37.57782%,46.452332%);stop-opacity:1;"/>
<stop offset="0.535156" style="stop-color:rgb(4.335022%,37.287903%,46.205139%);stop-opacity:1;"/>
<stop offset="0.539062" style="stop-color:rgb(4.367065%,36.999512%,45.959473%);stop-opacity:1;"/>
<stop offset="0.542969" style="stop-color:rgb(4.399109%,36.709595%,45.71228%);stop-opacity:1;"/>
<stop offset="0.546875" style="stop-color:rgb(4.431152%,36.421204%,45.466614%);stop-opacity:1;"/>
<stop offset="0.550781" style="stop-color:rgb(4.46167%,36.131287%,45.219421%);stop-opacity:1;"/>
<stop offset="0.554687" style="stop-color:rgb(4.493713%,35.842896%,44.972229%);stop-opacity:1;"/>
<stop offset="0.558594" style="stop-color:rgb(4.525757%,35.552979%,44.725037%);stop-opacity:1;"/>
<stop offset="0.5625" style="stop-color:rgb(4.5578%,35.264587%,44.47937%);stop-opacity:1;"/>
<stop offset="0.566406" style="stop-color:rgb(4.588318%,34.97467%,44.232178%);stop-opacity:1;"/>
<stop offset="0.570312" style="stop-color:rgb(4.620361%,34.686279%,43.986511%);stop-opacity:1;"/>
<stop offset="0.574219" style="stop-color:rgb(4.652405%,34.396362%,43.739319%);stop-opacity:1;"/>
<stop offset="0.578125" style="stop-color:rgb(4.684448%,34.107971%,43.493652%);stop-opacity:1;"/>
<stop offset="0.582031" style="stop-color:rgb(4.714966%,33.818054%,43.24646%);stop-opacity:1;"/>
<stop offset="0.585938" style="stop-color:rgb(4.747009%,33.529663%,42.999268%);stop-opacity:1;"/>
<stop offset="0.589844" style="stop-color:rgb(4.779053%,33.239746%,42.752075%);stop-opacity:1;"/>
<stop offset="0.59375" style="stop-color:rgb(4.811096%,32.951355%,42.506409%);stop-opacity:1;"/>
<stop offset="0.597656" style="stop-color:rgb(4.841614%,32.662964%,42.259216%);stop-opacity:1;"/>
<stop offset="0.601563" style="stop-color:rgb(4.873657%,32.374573%,42.01355%);stop-opacity:1;"/>
<stop offset="0.605469" style="stop-color:rgb(4.905701%,32.084656%,41.766357%);stop-opacity:1;"/>
<stop offset="0.609375" style="stop-color:rgb(4.937744%,31.796265%,41.519165%);stop-opacity:1;"/>
<stop offset="0.613281" style="stop-color:rgb(4.968262%,31.506348%,41.271973%);stop-opacity:1;"/>
<stop offset="0.617188" style="stop-color:rgb(5.000305%,31.217957%,41.026306%);stop-opacity:1;"/>
<stop offset="0.621094" style="stop-color:rgb(5.032349%,30.92804%,40.779114%);stop-opacity:1;"/>
<stop offset="0.625" style="stop-color:rgb(5.064392%,30.639648%,40.533447%);stop-opacity:1;"/>
<stop offset="0.628906" style="stop-color:rgb(5.09491%,30.349731%,40.286255%);stop-opacity:1;"/>
<stop offset="0.632813" style="stop-color:rgb(5.126953%,30.06134%,40.039062%);stop-opacity:1;"/>
<stop offset="0.636719" style="stop-color:rgb(5.158997%,29.771423%,39.79187%);stop-opacity:1;"/>
<stop offset="0.640625" style="stop-color:rgb(5.19104%,29.483032%,39.546204%);stop-opacity:1;"/>
<stop offset="0.644531" style="stop-color:rgb(5.221558%,29.193115%,39.299011%);stop-opacity:1;"/>
<stop offset="0.648438" style="stop-color:rgb(5.253601%,28.904724%,39.053345%);stop-opacity:1;"/>
<stop offset="0.652344" style="stop-color:rgb(5.285645%,28.614807%,38.806152%);stop-opacity:1;"/>
<stop offset="0.65625" style="stop-color:rgb(5.317688%,28.326416%,38.55896%);stop-opacity:1;"/>
<stop offset="0.660156" style="stop-color:rgb(5.348206%,28.036499%,38.311768%);stop-opacity:1;"/>
<stop offset="0.664063" style="stop-color:rgb(5.380249%,27.748108%,38.066101%);stop-opacity:1;"/>
<stop offset="0.667969" style="stop-color:rgb(5.412292%,27.458191%,37.818909%);stop-opacity:1;"/>
<stop offset="0.671875" style="stop-color:rgb(5.444336%,27.1698%,37.573242%);stop-opacity:1;"/>
<stop offset="0.675781" style="stop-color:rgb(5.474854%,26.879883%,37.32605%);stop-opacity:1;"/>
<stop offset="0.679688" style="stop-color:rgb(5.506897%,26.591492%,37.080383%);stop-opacity:1;"/>
<stop offset="0.683594" style="stop-color:rgb(5.53894%,26.301575%,36.833191%);stop-opacity:1;"/>
<stop offset="0.6875" style="stop-color:rgb(5.570984%,26.013184%,36.585999%);stop-opacity:1;"/>
<stop offset="0.691406" style="stop-color:rgb(5.601501%,25.723267%,36.338806%);stop-opacity:1;"/>
<stop offset="0.695313" style="stop-color:rgb(5.633545%,25.434875%,36.09314%);stop-opacity:1;"/>
<stop offset="0.699219" style="stop-color:rgb(5.664062%,25.144958%,35.845947%);stop-opacity:1;"/>
<stop offset="0.703125" style="stop-color:rgb(5.696106%,24.856567%,35.600281%);stop-opacity:1;"/>
<stop offset="0.707031" style="stop-color:rgb(5.728149%,24.56665%,35.353088%);stop-opacity:1;"/>
<stop offset="0.710938" style="stop-color:rgb(5.760193%,24.278259%,35.105896%);stop-opacity:1;"/>
<stop offset="0.714844" style="stop-color:rgb(5.79071%,23.988342%,34.858704%);stop-opacity:1;"/>
<stop offset="0.71875" style="stop-color:rgb(5.822754%,23.699951%,34.613037%);stop-opacity:1;"/>
<stop offset="0.722656" style="stop-color:rgb(5.854797%,23.410034%,34.365845%);stop-opacity:1;"/>
<stop offset="0.726563" style="stop-color:rgb(5.886841%,23.121643%,34.120178%);stop-opacity:1;"/>
<stop offset="0.730469" style="stop-color:rgb(5.917358%,22.831726%,33.872986%);stop-opacity:1;"/>
<stop offset="0.734375" style="stop-color:rgb(5.949402%,22.543335%,33.625793%);stop-opacity:1;"/>
<stop offset="0.738281" style="stop-color:rgb(5.981445%,22.253418%,33.378601%);stop-opacity:1;"/>
<stop offset="0.742188" style="stop-color:rgb(6.013489%,21.965027%,33.132935%);stop-opacity:1;"/>
<stop offset="0.746094" style="stop-color:rgb(6.044006%,21.67511%,32.885742%);stop-opacity:1;"/>
<stop offset="0.75" style="stop-color:rgb(6.07605%,21.386719%,32.640076%);stop-opacity:1;"/>
<stop offset="0.753906" style="stop-color:rgb(6.108093%,21.096802%,32.392883%);stop-opacity:1;"/>
<stop offset="0.757812" style="stop-color:rgb(6.140137%,20.808411%,32.145691%);stop-opacity:1;"/>
<stop offset="0.761719" style="stop-color:rgb(6.170654%,20.518494%,31.898499%);stop-opacity:1;"/>
<stop offset="0.765625" style="stop-color:rgb(6.202698%,20.230103%,31.652832%);stop-opacity:1;"/>
<stop offset="0.769531" style="stop-color:rgb(6.234741%,19.940186%,31.40564%);stop-opacity:1;"/>
<stop offset="0.773438" style="stop-color:rgb(6.266785%,19.651794%,31.159973%);stop-opacity:1;"/>
<stop offset="0.777344" style="stop-color:rgb(6.297302%,19.361877%,30.912781%);stop-opacity:1;"/>
<stop offset="0.78125" style="stop-color:rgb(6.329346%,19.073486%,30.667114%);stop-opacity:1;"/>
<stop offset="0.785156" style="stop-color:rgb(6.361389%,18.783569%,30.419922%);stop-opacity:1;"/>
<stop offset="0.789062" style="stop-color:rgb(6.393433%,18.495178%,30.172729%);stop-opacity:1;"/>
<stop offset="0.792969" style="stop-color:rgb(6.42395%,18.205261%,29.925537%);stop-opacity:1;"/>
<stop offset="0.796875" style="stop-color:rgb(6.455994%,17.91687%,29.679871%);stop-opacity:1;"/>
<stop offset="0.800781" style="stop-color:rgb(6.488037%,17.626953%,29.432678%);stop-opacity:1;"/>
<stop offset="0.804687" style="stop-color:rgb(6.520081%,17.338562%,29.187012%);stop-opacity:1;"/>
<stop offset="0.808594" style="stop-color:rgb(6.550598%,17.048645%,28.939819%);stop-opacity:1;"/>
<stop offset="0.8125" style="stop-color:rgb(6.582642%,16.760254%,28.692627%);stop-opacity:1;"/>
<stop offset="0.816406" style="stop-color:rgb(6.614685%,16.471863%,28.445435%);stop-opacity:1;"/>
<stop offset="0.820312" style="stop-color:rgb(6.646729%,16.183472%,28.199768%);stop-opacity:1;"/>
<stop offset="0.824219" style="stop-color:rgb(6.677246%,15.893555%,27.952576%);stop-opacity:1;"/>
<stop offset="0.828125" style="stop-color:rgb(6.70929%,15.605164%,27.706909%);stop-opacity:1;"/>
<stop offset="0.832031" style="stop-color:rgb(6.741333%,15.315247%,27.459717%);stop-opacity:1;"/>
<stop offset="0.835937" style="stop-color:rgb(6.773376%,15.026855%,27.212524%);stop-opacity:1;"/>
<stop offset="0.839844" style="stop-color:rgb(6.803894%,14.736938%,26.965332%);stop-opacity:1;"/>
<stop offset="0.84375" style="stop-color:rgb(6.835938%,14.448547%,26.719666%);stop-opacity:1;"/>
<stop offset="0.847656" style="stop-color:rgb(6.867981%,14.15863%,26.472473%);stop-opacity:1;"/>
<stop offset="0.851562" style="stop-color:rgb(6.900024%,13.870239%,26.226807%);stop-opacity:1;"/>
<stop offset="0.855469" style="stop-color:rgb(6.930542%,13.580322%,25.979614%);stop-opacity:1;"/>
<stop offset="0.859375" style="stop-color:rgb(6.962585%,13.291931%,25.732422%);stop-opacity:1;"/>
<stop offset="0.863281" style="stop-color:rgb(6.994629%,13.002014%,25.485229%);stop-opacity:1;"/>
<stop offset="0.867188" style="stop-color:rgb(7.026672%,12.713623%,25.239563%);stop-opacity:1;"/>
<stop offset="0.871094" style="stop-color:rgb(7.05719%,12.423706%,24.992371%);stop-opacity:1;"/>
<stop offset="0.875" style="stop-color:rgb(7.089233%,12.135315%,24.746704%);stop-opacity:1;"/>
<stop offset="0.878906" style="stop-color:rgb(7.121277%,11.845398%,24.499512%);stop-opacity:1;"/>
<stop offset="0.882813" style="stop-color:rgb(7.15332%,11.557007%,24.253845%);stop-opacity:1;"/>
<stop offset="0.886719" style="stop-color:rgb(7.183838%,11.26709%,24.006653%);stop-opacity:1;"/>
<stop offset="0.890625" style="stop-color:rgb(7.215881%,10.978699%,23.75946%);stop-opacity:1;"/>
<stop offset="0.894531" style="stop-color:rgb(7.247925%,10.688782%,23.512268%);stop-opacity:1;"/>
<stop offset="0.898438" style="stop-color:rgb(7.279968%,10.400391%,23.266602%);stop-opacity:1;"/>
<stop offset="0.902344" style="stop-color:rgb(7.310486%,10.110474%,23.019409%);stop-opacity:1;"/>
<stop offset="0.90625" style="stop-color:rgb(7.342529%,9.822083%,22.773743%);stop-opacity:1;"/>
<stop offset="0.910156" style="stop-color:rgb(7.374573%,9.532166%,22.52655%);stop-opacity:1;"/>
<stop offset="0.914063" style="stop-color:rgb(7.406616%,9.243774%,22.279358%);stop-opacity:1;"/>
<stop offset="0.917969" style="stop-color:rgb(7.437134%,8.953857%,22.032166%);stop-opacity:1;"/>
<stop offset="0.921875" style="stop-color:rgb(7.469177%,8.665466%,21.786499%);stop-opacity:1;"/>
<stop offset="0.925781" style="stop-color:rgb(7.501221%,8.375549%,21.539307%);stop-opacity:1;"/>
<stop offset="0.929688" style="stop-color:rgb(7.533264%,8.087158%,21.29364%);stop-opacity:1;"/>
<stop offset="0.933594" style="stop-color:rgb(7.563782%,7.797241%,21.046448%);stop-opacity:1;"/>
<stop offset="0.9375" style="stop-color:rgb(7.595825%,7.50885%,20.799255%);stop-opacity:1;"/>
<stop offset="0.941406" style="stop-color:rgb(7.627869%,7.218933%,20.552063%);stop-opacity:1;"/>
<stop offset="0.945313" style="stop-color:rgb(7.659912%,6.930542%,20.306396%);stop-opacity:1;"/>
<stop offset="0.949219" style="stop-color:rgb(7.69043%,6.640625%,20.059204%);stop-opacity:1;"/>
<stop offset="0.953125" style="stop-color:rgb(7.722473%,6.352234%,19.813538%);stop-opacity:1;"/>
<stop offset="0.957031" style="stop-color:rgb(7.754517%,6.062317%,19.566345%);stop-opacity:1;"/>
<stop offset="0.960938" style="stop-color:rgb(7.78656%,5.773926%,19.319153%);stop-opacity:1;"/>
<stop offset="0.964844" style="stop-color:rgb(7.817078%,5.484009%,19.07196%);stop-opacity:1;"/>
<stop offset="0.96875" style="stop-color:rgb(7.849121%,5.195618%,18.826294%);stop-opacity:1;"/>
<stop offset="0.972656" style="stop-color:rgb(7.881165%,4.905701%,18.579102%);stop-opacity:1;"/>
<stop offset="0.976562" style="stop-color:rgb(7.913208%,4.61731%,18.333435%);stop-opacity:1;"/>
<stop offset="0.980469" style="stop-color:rgb(7.943726%,4.327393%,18.086243%);stop-opacity:1;"/>
<stop offset="0.984375" style="stop-color:rgb(7.975769%,4.039001%,17.840576%);stop-opacity:1;"/>
<stop offset="0.988281" style="stop-color:rgb(8.007812%,3.749084%,17.593384%);stop-opacity:1;"/>
<stop offset="0.992188" style="stop-color:rgb(8.039856%,3.460693%,17.346191%);stop-opacity:1;"/>
<stop offset="0.996094" style="stop-color:rgb(8.070374%,3.170776%,17.098999%);stop-opacity:1;"/>
<stop offset="1" style="stop-color:rgb(8.102417%,2.882385%,16.853333%);stop-opacity:1;"/>
</linearGradient>
<clipPath id="clip2">
  <path d="M 104.996094 50.054688 L 269.996094 50.054688 L 269.996094 325.199219 L 104.996094 325.199219 Z M 104.996094 50.054688 "/>
</clipPath>
</defs>
<g id="surface1">
<g clip-path="url(#clip1)" clip-rule="nonzero">
<rect x="0" y="0" width="375" height="374.999991" style="fill:url(#linear0);stroke:none;"/>
</g>
<g clip-path="url(#clip2)" clip-rule="nonzero">
<path style=" stroke:none;fill-rule:nonzero;fill:rgb(100%,100%,100%);fill-opacity:1;" d="M 148.113281 126.109375 C 146.410156 132.039062 146.363281 131.796875 145.863281 132.734375 C 145.453125 131.988281 144.972656 131.1875 144.410156 130.328125 C 143.386719 128.761719 141.871094 128.386719 140.851562 127.257812 C 140.636719 127.019531 140.425781 126.800781 140.222656 126.597656 C 141.179688 125.300781 143.863281 127.363281 148.113281 126.109375 Z M 233.378906 125.773438 C 237.027344 126.101562 237.871094 125.757812 238.972656 125.246094 C 236.628906 126.679688 236.503906 128.390625 235.664062 129.492188 C 233.746094 132.007812 234.570312 134.167969 232.164062 137.988281 C 230.257812 135.136719 228.324219 132.375 226.375 129.734375 C 225.703125 127.558594 225.132812 125.261719 224.675781 122.832031 C 226.792969 124.308594 229.394531 125.414062 233.378906 125.773438 Z M 107.515625 214.316406 C 107.019531 217.847656 108.34375 230.039062 109.960938 232.949219 C 110.988281 234.804688 117.507812 242.023438 131.40625 247.949219 C 125.988281 233.742188 124.855469 218.4375 126.308594 203.386719 C 135.453125 200.914062 142.652344 215.242188 150.253906 219.628906 C 151.15625 226.628906 152.589844 232.863281 150.820312 236.183594 C 149.351562 238.941406 150.433594 242.261719 148.53125 244.96875 C 144.082031 251.320312 139.726562 258.453125 140.644531 270.085938 C 141.066406 275.425781 140.808594 278.78125 141.328125 282.800781 C 142.6875 293.308594 143.171875 295.980469 141.90625 300.699219 C 141.445312 302.410156 139.09375 304.910156 139.613281 308.121094 C 136.371094 311.539062 136.710938 311.164062 133.925781 313.746094 C 132.421875 315.140625 132.210938 315.121094 130.597656 316.027344 C 129.40625 316.699219 127.261719 317.175781 126.832031 317.808594 C 126.660156 318.0625 126.523438 318.386719 126.902344 319.5 C 127.871094 321.058594 127.886719 321.636719 129.265625 322.15625 C 129.511719 322.25 133.605469 322.984375 136.171875 323.082031 C 136.921875 323.113281 137.441406 322.957031 137.949219 323.109375 C 138.039062 323.136719 138.390625 322.960938 138.644531 322.976562 C 139.472656 322.839844 139.8125 322.308594 139.972656 322.160156 C 140.132812 322.007812 140.363281 321.753906 140.535156 321.808594 C 141.992188 322.253906 143.308594 321.382812 143.800781 321.027344 C 144.832031 320.285156 145.027344 319.777344 145.746094 318.976562 C 146.164062 318.511719 146.683594 317.460938 147.101562 317.367188 C 151.886719 316.253906 152.296875 314.871094 151.105469 309.367188 C 150.800781 307.976562 151.824219 303.691406 151.910156 302.410156 C 152.441406 294.601562 154.386719 290.042969 158.550781 280.0625 C 158.902344 279.222656 164.050781 274.378906 164.617188 269.203125 C 165.222656 263.621094 162.707031 257.636719 163.988281 251.902344 C 164.3125 250.4375 168.15625 245.3125 168.742188 242.910156 C 170.085938 237.382812 171.488281 231.878906 172.96875 226.410156 C 173.761719 223.46875 174.714844 221.851562 175.753906 220.605469 C 190.183594 222.746094 194.890625 224.058594 200.28125 225.867188 C 201.546875 229.136719 202.71875 234.339844 203.945312 238.542969 C 204.527344 240.535156 206.007812 242.316406 206.574219 244.308594 C 206.792969 245.082031 207.683594 246.109375 208.328125 247.164062 C 209.554688 249.15625 210.078125 249.773438 210.667969 250.707031 C 211.484375 252 213.429688 253.792969 213.667969 254.714844 C 215.164062 260.402344 213.335938 263.664062 214.148438 269.21875 C 214.90625 274.375 219.605469 278.796875 219.984375 279.625 C 224.519531 289.464844 230.644531 294.617188 230.941406 302.164062 C 230.945312 302.3125 230.6875 303.332031 230.683594 303.933594 C 230.679688 305.269531 231.597656 305.925781 231.90625 308.078125 C 232.234375 310.371094 231.804688 312.046875 231.980469 313.691406 C 232.300781 316.609375 232.660156 315.9375 232.792969 316.929688 C 232.851562 317.351562 233.15625 317.921875 233.40625 318.890625 C 233.574219 319.5625 233.472656 319.90625 233.5625 320.296875 C 233.828125 321.488281 233.992188 321.929688 234.832031 322.765625 C 235.546875 323.476562 235.664062 323.832031 236.597656 324.1875 C 236.847656 324.28125 237.25 324.476562 237.703125 324.570312 C 238.160156 324.667969 239.148438 325.039062 239.269531 324.976562 C 239.542969 324.84375 240.164062 325.195312 241.332031 325.199219 C 241.785156 325.203125 242.636719 325.109375 243.140625 325.160156 C 243.246094 325.171875 243.710938 325.152344 244.191406 325.117188 C 244.234375 325.113281 248.46875 324.371094 248.523438 324.339844 C 249.082031 324.007812 249.914062 323.871094 250.523438 323.503906 C 250.800781 323.335938 251.472656 322.277344 251.601562 321.898438 C 252.0625 320.929688 251.46875 320.277344 250.746094 319.398438 C 250.136719 318.652344 249.542969 317.574219 248.203125 316.628906 C 247.703125 316.277344 246.425781 314.859375 245.890625 314.324219 C 245.636719 314.070312 245.542969 314.339844 245.253906 313.292969 C 244.96875 312.476562 244.539062 311.429688 244.394531 311.019531 C 243.871094 309.519531 245.09375 307.441406 244.410156 305.148438 C 243.769531 302.988281 241.210938 300.566406 241.148438 300.363281 C 239.710938 295.6875 237.941406 294.09375 238.90625 283.546875 C 239.277344 279.511719 238.742188 273.890625 238.964844 268.542969 C 239.449219 256.886719 232.269531 251.921875 227.585938 245.71875 C 226.84375 244.742188 226.511719 243.667969 226.300781 242.566406 C 225.945312 240.679688 225.960938 238.71875 224.972656 237.015625 C 224.507812 236.214844 224.164062 235.40625 223.90625 234.582031 C 236.65625 236.476562 238.195312 220.316406 247.347656 212.515625 C 248.855469 221.859375 249.859375 231.164062 250.191406 240.089844 C 250.25 239.917969 251.4375 236.238281 251.800781 235.109375 C 253.347656 230.296875 270.191406 218.097656 270.015625 205.65625 C 265.453125 184.863281 255.722656 172.828125 246.328125 161.636719 C 243.742188 156.847656 240.988281 152.027344 238.117188 147.320312 C 245.867188 141.53125 255.40625 134.289062 256.183594 127.105469 C 256.371094 125.398438 256.597656 123.824219 256.738281 122.769531 C 256.777344 122.492188 256.894531 122.132812 256.96875 121.832031 C 257 121.707031 256.988281 121.140625 256.953125 121.015625 C 256.855469 120.636719 256.746094 120.460938 256.605469 120.355469 C 256.417969 120.011719 256.175781 119.242188 254.800781 118.332031 C 254.128906 117.882812 250.691406 115.746094 249.996094 115.378906 C 247.5625 114.101562 243.132812 110.742188 239.976562 109.332031 C 235.917969 107.515625 234.40625 102.40625 225.988281 100.785156 C 223.441406 98.59375 222.265625 98.304688 221.230469 97.75 C 220.8125 97.523438 217.980469 96.96875 216.386719 97.519531 C 216.054688 97.632812 215.398438 97.636719 215.195312 97.515625 C 214.371094 97.023438 211.6875 96.199219 210.089844 95.691406 C 210.316406 95.746094 210.546875 95.8125 210.78125 95.886719 C 210.238281 93.964844 210.097656 91.65625 203.804688 89.675781 C 203.035156 89.429688 199.863281 91.023438 199.414062 90.484375 C 198.632812 89.546875 197.394531 89.402344 196.09375 89.203125 C 196.167969 88.425781 196.214844 87.660156 196.214844 86.71875 C 196.214844 85.046875 196.253906 86.617188 196.410156 84.652344 C 196.496094 83.570312 196.519531 84.03125 196.414062 79.953125 C 198.074219 80.339844 198.589844 78.933594 198.894531 78.070312 C 199.070312 77.570312 199.566406 77.191406 199.835938 76.742188 C 200.609375 75.453125 201.246094 72.003906 200.175781 70.71875 C 200.007812 70.519531 199.824219 70.398438 199.636719 70.332031 C 201.734375 64.753906 200.710938 51.269531 191.125 52.050781 C 188.34375 52.277344 188.546875 50.875 186.136719 50.164062 C 185.039062 49.839844 183.113281 50.308594 181.910156 50.523438 C 179.261719 51.003906 176.859375 51.316406 175.316406 52.808594 C 173.875 54.207031 172.011719 54.289062 171.46875 55.097656 C 170.519531 56.324219 170.535156 56.710938 169.503906 59.550781 C 169.175781 60.453125 168.660156 62.617188 168.46875 64.058594 C 168.355469 64.914062 168.945312 66.277344 169.644531 67.632812 C 170.1875 69.945312 170.429688 69.914062 170.984375 71.34375 C 170.851562 71.371094 170.722656 71.421875 170.589844 71.507812 C 168.957031 72.609375 169.230469 76.0625 169.921875 77.636719 C 170.109375 78.058594 170.683594 78.800781 170.761719 79.164062 C 171.039062 80.425781 171.429688 81.351562 172.765625 81.414062 C 173.21875 83.410156 172.171875 83.132812 174.6875 85.972656 C 175 88.53125 175.460938 89.574219 175.859375 90.542969 C 174.984375 90.625 173.957031 90.371094 173.449219 91.144531 C 173.132812 91.621094 167.835938 90.488281 167.277344 90.644531 C 165.863281 91.03125 164.746094 95.417969 159.601562 97.023438 C 159.210938 97.019531 158.859375 97.046875 158.59375 97.136719 C 157.320312 97.558594 155.949219 98.132812 155.195312 98.960938 C 153.324219 98.628906 149.875 98.859375 148.015625 100.421875 C 145.734375 102.335938 144.410156 105.191406 143.640625 107.097656 C 140.421875 108.953125 140.691406 110.976562 137.214844 113.601562 C 134.40625 115.730469 131.429688 118.207031 129.300781 120.039062 C 128.691406 120.5625 128.117188 121.222656 127.671875 121.9375 C 127.492188 122.226562 127.070312 122.570312 126.914062 123.152344 C 126.675781 124.410156 127.320312 124.425781 127.4375 125.824219 C 127.667969 128.550781 127.707031 132.6875 128.566406 134.265625 C 132.679688 141.8125 135.113281 142.265625 138.773438 146.324219 C 130.003906 163.058594 119.683594 181.328125 105.8125 192.679688 C 102.917969 208.9375 108.75 205.503906 107.515625 214.316406 "/>
</g>
</g>
</svg>
